<svg xmlns="http://www.w3.org/2000/svg" width="1024" height="1024" viewBox="0 0 1024 1024">
<g>
<path d="M 524.29 839.48 C515.71,841.60 511.90,841.98 500.29,841.90 C491.72,841.84 484.80,841.29 482.00,840.44 C479.52,839.68 474.27,838.12 470.32,836.97 C466.37,835.82 462.61,834.23 461.95,833.44 C461.29,832.65 460.34,832.00 459.84,832.00 C459.33,832.00 458.37,831.54 457.71,830.97 C457.04,830.40 454.19,828.26 451.37,826.20 C439.61,817.61 430.14,802.57 427.93,788.97 C426.32,779.02 427.96,766.64 431.69,760.71 C437.64,751.25 444.37,746.00 450.55,746.00 C454.94,746.00 455.40,747.87 452.88,755.31 C450.35,762.76 450.75,772.64 453.83,778.67 C456.19,783.30 464.27,790.31 471.34,793.86 C475.96,796.18 477.65,796.45 487.50,796.44 C497.46,796.43 499.03,796.17 504.03,793.70 C511.55,789.99 519.58,782.75 522.44,777.13 C528.32,765.51 527.56,746.26 520.64,732.00 C518.64,727.88 516.55,723.83 515.99,723.00 C515.43,722.17 514.05,719.47 512.91,717.00 C510.68,712.13 509.83,710.62 505.85,704.46 C503.00,700.05 499.00,691.68 499.00,690.14 C499.00,689.60 498.38,687.89 497.62,686.33 C490.96,672.63 488.07,660.71 485.43,636.00 C483.75,620.20 483.85,612.15 486.00,590.30 C486.95,580.70 486.89,578.68 485.57,576.14 C482.71,570.60 474.52,571.30 471.98,577.30 C471.09,579.39 466.77,599.10 464.96,609.27 C464.49,611.90 463.68,615.50 463.15,617.27 C462.62,619.05 461.40,623.20 460.45,626.50 C459.49,629.80 457.20,636.43 455.35,641.24 C453.51,646.05 452.00,650.40 452.00,650.91 C452.00,651.75 450.03,656.05 447.83,660.00 C447.37,660.83 446.52,662.62 445.93,664.00 C438.88,680.58 426.35,700.05 413.18,714.90 C392.21,738.52 374.53,749.90 347.64,757.05 C338.70,759.43 316.41,759.76 309.78,757.61 C307.43,756.85 304.15,755.91 302.50,755.53 C300.85,755.16 295.74,753.09 291.14,750.94 C280.45,745.94 268.11,734.36 263.27,724.79 C257.45,713.28 256.66,710.23 256.26,697.64 C255.83,684.22 257.01,679.25 262.70,670.42 C266.79,664.07 268.18,662.82 274.93,659.44 C283.27,655.26 294.00,654.82 294.00,658.65 C294.00,659.54 292.43,661.89 290.51,663.88 C280.29,674.47 280.52,688.02 291.13,699.53 C296.48,705.33 303.51,708.23 313.50,708.75 C323.46,709.27 330.53,707.21 342.21,700.40 C351.69,694.88 369.80,677.54 376.57,667.50 C378.80,664.20 382.01,659.47 383.70,657.00 C388.66,649.75 398.29,631.32 401.47,623.00 C402.41,620.53 403.79,617.15 404.53,615.50 C408.87,605.84 410.00,602.94 410.00,601.49 C410.00,600.60 410.51,598.92 411.13,597.76 C412.36,595.45 414.59,586.47 415.94,578.38 C416.41,575.56 417.29,572.33 417.90,571.19 C419.07,569.00 419.42,555.27 418.38,552.54 C418.04,551.65 416.45,550.25 414.86,549.43 C412.26,548.08 411.60,548.09 408.56,549.54 C406.70,550.42 403.90,553.03 402.34,555.32 C400.78,557.62 399.25,559.72 398.94,560.00 C398.62,560.28 396.37,563.19 393.93,566.48 C375.54,591.29 353.27,610.47 330.00,621.54 C321.88,625.41 303.48,630.50 293.50,631.65 C252.73,636.34 216.18,620.51 198.07,590.29 C187.80,573.17 185.54,565.11 185.52,545.50 C185.50,527.91 187.45,520.13 195.16,507.00 C203.04,493.59 213.48,485.40 232.91,477.37 C236.42,475.92 240.09,475.55 250.91,475.53 C266.39,475.50 270.62,476.60 280.03,483.14 C286.31,487.50 289.00,491.37 289.00,496.03 L 289.00 499.25 L 283.25 498.57 C280.09,498.19 275.57,497.64 273.22,497.34 C265.90,496.41 256.86,499.53 250.23,505.28 C243.00,511.56 239.69,516.39 237.07,524.50 C233.72,534.88 234.79,546.68 240.03,557.00 C242.24,561.36 252.65,571.45 256.00,572.48 C257.38,572.90 258.95,573.58 259.50,573.98 C260.05,574.39 263.01,575.50 266.07,576.44 C272.58,578.45 284.26,578.18 293.00,575.83 C311.02,570.97 330.64,553.63 339.18,535.00 C341.32,530.33 343.46,525.79 343.94,524.93 C344.41,524.06 345.82,519.79 347.07,515.43 C349.07,508.42 349.34,505.24 349.36,488.00 C349.38,469.06 349.02,465.73 345.42,451.00 C344.54,447.42 343.23,441.12 342.50,437.00 C341.77,432.88 340.69,426.80 340.09,423.50 C338.84,416.57 338.78,391.09 339.99,383.00 C341.97,369.78 343.12,363.30 343.99,360.50 C344.50,358.85 345.89,354.12 347.09,350.00 C350.10,339.64 352.85,331.28 353.90,329.22 C354.39,328.28 357.04,322.77 359.79,317.00 C364.04,308.06 368.08,301.04 373.06,293.95 C373.66,293.10 375.35,290.57 376.82,288.32 C385.07,275.71 403.31,256.53 417.63,245.41 C422.51,241.62 427.30,237.80 428.27,236.92 C429.24,236.04 431.26,234.70 432.77,233.94 C434.27,233.18 438.42,230.69 442.00,228.41 C447.70,224.78 458.11,219.53 467.50,215.55 C469.15,214.85 471.85,213.71 473.50,213.02 C478.03,211.11 489.64,207.51 497.50,205.59 C501.35,204.65 507.08,203.23 510.23,202.44 C513.39,201.65 517.66,200.99 519.73,200.99 C521.81,200.98 525.97,200.31 529.00,199.50 C536.65,197.45 574.97,197.46 583.50,199.52 C586.80,200.32 591.08,200.97 593.00,200.98 C596.26,200.98 603.55,202.47 615.50,205.57 C618.25,206.29 624.10,207.76 628.50,208.84 C645.33,212.99 677.31,229.10 692.64,241.17 C696.02,243.83 699.11,246.00 699.51,246.00 C699.90,246.00 702.94,248.59 706.26,251.75 C728.05,272.54 737.55,285.21 748.84,308.50 C753.96,319.07 755.22,322.79 759.53,340.00 C760.28,343.02 761.36,347.30 761.93,349.50 C763.61,356.07 763.27,392.30 761.46,399.43 C757.18,416.28 752.75,428.89 748.27,437.00 C738.04,455.51 724.70,469.25 708.25,478.23 C699.11,483.21 697.37,484.00 695.46,484.00 C694.33,484.00 692.97,484.40 692.45,484.90 C690.85,486.40 675.40,488.00 661.59,488.08 C654.16,488.12 647.19,488.66 645.46,489.33 C634.47,493.58 631.92,502.48 638.73,512.83 C644.00,520.84 664.61,540.97 674.00,547.27 C675.92,548.56 679.75,551.23 682.50,553.20 C687.07,556.48 704.32,567.03 709.78,569.91 C711.04,570.57 715.76,572.46 720.28,574.13 C749.84,584.99 765.31,587.17 783.76,583.05 C802.32,578.91 813.26,570.25 821.07,553.50 C823.04,549.26 823.40,546.91 823.39,538.00 C823.39,528.63 823.10,526.91 820.70,522.00 C815.84,512.09 813.29,509.21 804.02,503.20 C799.25,500.11 797.56,499.59 791.02,499.22 C786.88,498.99 781.24,499.21 778.47,499.72 C775.70,500.23 772.89,500.46 772.22,500.24 C768.82,499.11 773.15,490.41 779.55,485.53 C781.37,484.14 783.15,483.00 783.49,483.00 C783.83,483.00 786.22,482.01 788.80,480.79 C792.90,478.87 795.22,478.58 807.00,478.54 C819.97,478.50 820.85,478.63 829.50,481.90 C840.27,485.97 845.04,489.07 851.69,496.35 C862.06,507.70 866.43,516.63 869.52,532.79 C873.05,551.24 869.44,576.14 861.16,590.40 C843.38,621.00 813.93,639.00 778.50,640.91 C758.34,641.99 738.65,639.95 725.47,635.39 C723.25,634.63 720.70,634.00 719.80,634.00 C718.90,634.00 716.89,633.35 715.33,632.55 C713.77,631.76 708.67,629.46 704.00,627.46 C691.36,622.03 689.49,621.09 677.50,614.09 C660.13,603.95 635.56,584.49 621.50,569.75 C617.65,565.71 611.42,559.16 607.65,555.20 C601.53,548.77 600.40,548.00 597.06,548.00 C587.62,548.00 587.81,556.65 597.55,570.03 C599.36,572.52 602.34,576.63 604.17,579.17 C612.84,591.19 623.82,603.20 636.07,614.06 C644.52,621.56 652.07,626.89 665.00,634.51 C683.36,645.34 681.78,644.60 717.86,658.95 C743.48,669.14 762.15,688.45 766.49,709.25 C769.62,724.29 767.73,741.76 761.76,752.84 C753.53,768.11 745.68,775.72 730.18,783.46 C724.04,786.53 721.47,787.14 705.04,789.46 C700.57,790.09 681.71,787.09 677.57,785.08 C670.21,781.53 663.63,775.63 659.56,768.96 C655.90,762.95 655.62,761.96 655.56,754.72 C655.48,744.99 657.01,743.29 661.35,748.25 C668.16,756.01 669.44,757.17 673.30,759.03 C678.99,761.78 691.04,761.76 697.30,758.98 C703.11,756.41 709.42,749.26 711.56,742.82 C713.57,736.76 713.14,729.15 710.48,723.57 C707.77,717.90 699.51,709.94 692.00,705.76 C685.50,702.15 674.50,698.00 671.44,698.00 C670.54,698.00 668.61,697.38 667.15,696.63 C665.69,695.87 660.67,693.80 656.00,692.02 C637.63,685.01 626.03,678.19 611.14,665.64 C600.32,656.52 583.51,638.72 579.50,632.14 C578.95,631.23 575.53,626.00 571.90,620.50 C563.82,608.24 551.00,583.64 551.00,580.38 C551.00,579.70 549.84,577.77 548.41,576.08 C546.46,573.76 544.99,573.00 542.44,573.00 C536.68,573.00 535.79,576.18 536.28,594.83 C536.70,610.67 537.80,620.15 540.61,632.00 C542.48,639.89 545.56,650.19 546.80,652.67 C547.30,653.68 548.40,656.08 549.25,658.00 C554.33,669.56 558.03,677.07 560.56,681.02 C562.14,683.48 564.52,687.53 565.84,690.00 C567.16,692.47 569.25,695.85 570.48,697.50 C573.40,701.41 583.00,719.60 583.01,721.24 C583.01,721.93 583.72,723.85 584.59,725.50 C585.46,727.15 586.56,730.53 587.04,733.00 C587.51,735.47 588.35,739.53 588.91,742.00 C590.20,747.79 590.20,762.21 588.91,768.00 C588.35,770.47 587.51,774.59 587.03,777.14 C586.55,779.69 585.68,782.62 585.10,783.64 C584.52,784.66 582.87,788.40 581.43,791.95 C575.50,806.54 563.91,819.84 548.48,829.77 C542.72,833.48 533.38,837.23 524.29,839.48 ZM 429.00 439.94 C437.64,441.53 444.27,441.21 466.11,438.15 C491.96,434.54 518.92,417.40 527.16,399.34 C533.01,386.53 534.50,377.72 532.44,368.02 C528.83,350.97 522.20,341.34 507.08,331.22 C498.13,325.22 491.21,322.51 474.84,318.59 C467.28,316.79 447.81,316.47 441.50,318.05 C439.30,318.60 435.48,319.44 433.00,319.92 C416.36,323.14 399.73,332.42 386.89,345.66 C380.62,352.12 378.34,355.44 373.92,364.50 L 368.55 375.50 L 368.53 388.50 C368.50,402.71 369.07,404.62 376.37,414.85 C382.09,422.85 400.59,435.00 407.07,435.00 C408.20,435.00 410.02,435.48 411.11,436.06 C412.20,436.64 415.66,437.57 418.80,438.11 C421.93,438.66 426.52,439.48 429.00,439.94 ZM 460.98 400.48 C457.01,403.16 455.54,403.53 448.00,403.80 C440.36,404.07 439.00,403.83 434.55,401.42 C428.41,398.09 427.66,397.35 424.52,391.44 C420.99,384.80 420.97,374.96 424.49,368.03 C430.01,357.12 443.54,352.35 456.25,356.83 C462.38,358.99 466.40,362.86 469.65,369.72 C471.89,374.46 472.19,376.17 471.77,382.00 C471.19,390.15 467.87,395.82 460.98,400.48 Z" fill="rgb(39,39,39)"/>
<path d="M 520.00 842.59 C510.54,844.64 489.38,844.31 480.32,841.97 C451.03,834.40 430.05,813.54 425.88,787.85 C423.34,772.15 429.88,755.03 441.41,747.25 C447.60,743.07 453.15,742.78 455.59,746.50 C457.13,748.85 457.10,749.33 455.03,754.43 C452.09,761.67 452.10,771.31 455.04,777.08 C457.82,782.53 464.18,788.37 471.00,791.75 C475.97,794.21 477.56,794.47 487.50,794.49 C497.75,794.50 498.90,794.30 504.41,791.51 C512.15,787.58 517.96,781.81 521.57,774.46 C524.26,768.98 524.50,767.65 524.44,758.00 C524.36,744.19 521.69,736.21 510.32,715.88 C497.58,693.09 491.53,679.30 488.95,667.18 C488.45,664.81 487.80,662.48 487.51,662.01 C486.43,660.27 484.05,644.07 483.04,631.59 C482.27,622.10 482.32,614.29 483.22,602.09 C485.16,575.73 484.89,574.00 478.90,574.00 C474.76,574.00 473.53,576.65 470.51,592.00 C459.28,649.27 437.81,693.55 406.05,725.00 C388.85,742.03 371.97,752.27 352.19,757.68 C343.73,759.99 340.59,760.33 327.50,760.34 C315.13,760.35 311.22,759.98 305.20,758.22 C281.13,751.22 264.46,736.34 256.76,715.00 C253.94,707.20 253.24,690.52 255.37,682.20 C257.18,675.13 263.28,665.40 268.26,661.64 C277.27,654.83 288.41,652.07 293.49,655.40 C296.94,657.66 296.64,660.00 292.37,664.05 C284.46,671.58 282.69,682.11 287.70,691.91 C296.45,709.01 319.98,711.93 342.23,698.68 C353.15,692.17 369.29,675.46 379.41,660.17 C396.60,634.22 408.03,606.81 415.93,572.63 C419.53,557.07 418.11,550.61 411.23,551.19 C407.87,551.48 406.91,552.37 399.24,562.50 C376.62,592.37 357.49,609.46 333.19,621.50 C319.21,628.43 306.94,631.85 288.57,633.94 C271.07,635.92 249.30,632.10 233.64,624.28 C214.66,614.81 201.40,601.70 191.95,583.04 C174.94,549.46 182.87,508.16 210.31,487.39 C226.75,474.96 247.65,470.30 266.14,474.96 C276.98,477.69 285.46,483.39 290.32,491.21 C292.54,494.79 292.44,497.29 290.01,499.49 C288.17,501.15 287.33,501.19 279.18,500.03 C269.41,498.62 262.94,499.44 256.22,502.92 C251.05,505.59 243.74,513.46 240.36,520.00 C237.70,525.13 237.51,526.28 237.54,537.00 C237.58,547.88 237.75,548.82 240.70,554.54 C246.41,565.60 257.94,573.56 271.85,576.04 C277.51,577.05 279.79,576.97 287.00,575.50 C313.98,570.00 337.26,546.06 344.86,516.00 C349.46,497.80 349.02,476.13 343.54,451.00 C341.78,442.92 340.52,436.22 338.85,426.07 C337.52,418.04 338.24,378.23 339.82,372.00 C340.45,369.52 341.94,363.23 343.12,358.00 C356.07,301.02 397.88,248.73 453.00,220.58 C474.69,209.51 491.61,203.98 518.00,199.35 C530.76,197.11 535.33,196.80 556.00,196.79 C579.21,196.77 588.02,197.63 608.00,201.85 C610.47,202.37 614.75,203.28 617.50,203.86 C635.43,207.66 664.65,220.25 682.05,231.67 C725.34,260.08 751.29,295.83 762.13,342.00 C764.06,350.21 764.37,354.42 764.43,373.00 C764.51,396.59 764.04,399.73 757.42,419.71 C746.07,454.03 720.84,479.01 689.00,487.47 C680.86,489.63 677.35,490.00 664.50,490.00 C656.25,490.01 647.84,490.47 645.81,491.03 C641.81,492.15 637.37,496.67 636.37,500.66 C634.14,509.57 656.41,533.45 685.13,552.96 C706.06,567.18 725.07,575.70 748.00,581.14 C756.80,583.23 780.02,582.74 788.21,580.29 C801.92,576.20 812.06,567.71 818.23,555.18 C821.30,548.95 821.50,547.88 821.49,538.02 C821.48,528.06 821.30,527.14 818.08,520.69 C810.25,505.05 795.40,498.17 778.09,502.17 C773.59,503.21 772.80,503.13 771.01,501.51 C768.23,498.99 768.49,496.00 771.93,491.25 C783.63,475.11 810.66,471.12 834.65,482.00 C861.82,494.31 877.62,528.66 871.90,562.92 C870.48,571.41 865.90,585.30 862.44,591.58 C851.00,612.35 830.28,629.44 807.00,637.31 C792.61,642.18 784.63,643.41 768.00,643.35 C747.32,643.27 730.65,640.04 711.00,632.30 C676.03,618.53 650.73,601.04 617.78,567.86 C598.90,548.84 596.37,547.03 593.20,550.20 C590.30,553.10 592.55,560.12 599.61,570.15 C615.91,593.35 629.87,607.95 650.70,623.60 C663.35,633.11 684.20,643.89 707.32,652.87 C729.50,661.50 739.21,667.15 749.57,677.47 C762.70,690.55 768.63,703.41 769.65,721.00 C771.23,748.34 756.77,772.43 731.50,784.51 C721.39,789.34 713.81,791.00 701.83,791.00 C685.51,791.00 674.49,787.10 664.31,777.72 C655.93,769.99 650.63,753.84 654.23,747.00 C656.52,742.66 659.25,743.31 664.48,749.42 C675.75,762.61 691.66,763.56 703.73,751.75 C710.99,744.66 713.01,733.05 708.58,723.79 C704.28,714.78 691.03,705.57 675.00,700.46 C662.47,696.47 647.00,690.49 639.50,686.75 C624.67,679.36 608.61,667.03 594.89,652.50 C575.97,632.47 566.93,618.51 548.91,581.50 C546.14,575.82 545.02,574.44 542.93,574.20 C539.39,573.79 537.82,577.46 537.25,587.50 C536.80,595.44 539.06,618.05 541.20,626.90 C546.67,649.59 552.63,664.36 564.03,683.50 C566.65,687.90 571.93,696.78 575.76,703.24 C583.10,715.61 586.67,724.45 589.52,737.29 C591.79,747.51 591.10,769.27 588.19,779.00 C578.15,812.61 553.91,835.22 520.00,842.59 ZM 524.29 839.48 C533.38,837.23 542.72,833.48 548.48,829.77 C563.91,819.84 575.50,806.54 581.43,791.95 C582.87,788.40 584.52,784.66 585.10,783.64 C585.68,782.62 586.55,779.69 587.03,777.14 C587.51,774.59 588.35,770.47 588.91,768.00 C590.20,762.21 590.20,747.79 588.91,742.00 C588.35,739.53 587.51,735.47 587.04,733.00 C586.56,730.53 585.46,727.15 584.59,725.50 C583.72,723.85 583.01,721.93 583.01,721.24 C583.00,719.60 573.40,701.41 570.48,697.50 C569.25,695.85 567.16,692.47 565.84,690.00 C564.52,687.53 562.14,683.48 560.56,681.02 C558.03,677.07 554.33,669.56 549.25,658.00 C548.40,656.08 547.30,653.68 546.80,652.67 C545.56,650.19 542.48,639.89 540.61,632.00 C537.80,620.15 536.70,610.67 536.28,594.83 C535.79,576.18 536.68,573.00 542.44,573.00 C544.99,573.00 546.46,573.76 548.41,576.08 C549.84,577.77 551.00,579.70 551.00,580.38 C551.00,583.64 563.82,608.24 571.90,620.50 C575.53,626.00 578.95,631.23 579.50,632.14 C583.51,638.72 600.32,656.52 611.14,665.64 C626.03,678.19 637.63,685.01 656.00,692.02 C660.67,693.80 665.69,695.87 667.15,696.63 C668.61,697.38 670.54,698.00 671.44,698.00 C674.50,698.00 685.50,702.15 692.00,705.76 C699.51,709.94 707.77,717.90 710.48,723.57 C713.14,729.15 713.57,736.76 711.56,742.82 C709.42,749.26 703.11,756.41 697.30,758.98 C691.04,761.76 678.99,761.78 673.30,759.03 C669.44,757.17 668.16,756.01 661.35,748.25 C657.01,743.29 655.48,744.99 655.56,754.72 C655.62,761.96 655.90,762.95 659.56,768.96 C663.63,775.63 670.21,781.53 677.57,785.08 C681.71,787.09 700.57,790.09 705.04,789.46 C721.47,787.14 724.04,786.53 730.18,783.46 C745.68,775.72 753.53,768.11 761.76,752.84 C767.73,741.76 769.62,724.29 766.49,709.25 C762.15,688.45 743.48,669.14 717.86,658.95 C681.78,644.60 683.36,645.34 665.00,634.51 C652.07,626.89 644.52,621.56 636.07,614.06 C623.82,603.20 612.84,591.19 604.17,579.17 C602.34,576.63 599.36,572.52 597.55,570.03 C587.81,556.65 587.62,548.00 597.06,548.00 C600.40,548.00 601.53,548.77 607.65,555.20 C611.42,559.16 617.65,565.71 621.50,569.75 C635.56,584.49 660.13,603.95 677.50,614.09 C689.49,621.09 691.36,622.03 704.00,627.46 C708.67,629.46 713.77,631.76 715.33,632.55 C716.89,633.35 718.90,634.00 719.80,634.00 C720.70,634.00 723.25,634.63 725.47,635.39 C738.65,639.95 758.34,641.99 778.50,640.91 C813.93,639.00 843.38,621.00 861.16,590.40 C869.44,576.14 873.05,551.24 869.52,532.79 C866.43,516.63 862.06,507.70 851.69,496.35 C845.04,489.07 840.27,485.97 829.50,481.90 C820.85,478.63 819.97,478.50 807.00,478.54 C795.22,478.58 792.90,478.87 788.80,480.79 C786.22,482.01 783.83,483.00 783.49,483.00 C783.15,483.00 781.37,484.14 779.55,485.53 C773.15,490.41 768.82,499.11 772.22,500.24 C772.89,500.46 775.70,500.23 778.47,499.72 C781.24,499.21 786.88,498.99 791.02,499.22 C797.56,499.59 799.25,500.11 804.02,503.20 C813.29,509.21 815.84,512.09 820.70,522.00 C823.10,526.91 823.39,528.63 823.39,538.00 C823.40,546.91 823.04,549.26 821.07,553.50 C813.26,570.25 802.32,578.91 783.76,583.05 C765.31,587.17 749.84,584.99 720.28,574.13 C715.76,572.46 711.04,570.57 709.78,569.91 C704.32,567.03 687.07,556.48 682.50,553.20 C679.75,551.23 675.92,548.56 674.00,547.27 C664.61,540.97 644.00,520.84 638.73,512.83 C631.92,502.48 634.47,493.58 645.46,489.33 C647.19,488.66 654.16,488.12 661.59,488.08 C675.40,488.00 690.85,486.40 692.45,484.90 C692.97,484.40 694.33,484.00 695.46,484.00 C697.37,484.00 699.11,483.21 708.25,478.23 C724.70,469.25 738.04,455.51 748.27,437.00 C752.75,428.89 757.18,416.28 761.46,399.43 C763.27,392.30 763.61,356.07 761.93,349.50 C761.36,347.30 760.28,343.02 759.53,340.00 C755.22,322.79 753.96,319.07 748.84,308.50 C737.55,285.21 728.05,272.54 706.26,251.75 C702.94,248.59 699.90,246.00 699.51,246.00 C699.11,246.00 696.02,243.83 692.64,241.17 C677.31,229.10 645.33,212.99 628.50,208.84 C624.10,207.76 618.25,206.29 615.50,205.57 C603.55,202.47 596.26,200.98 593.00,200.98 C591.08,200.97 586.80,200.32 583.50,199.52 C574.97,197.46 536.65,197.45 529.00,199.50 C525.97,200.31 521.81,200.98 519.73,200.99 C517.66,200.99 513.39,201.65 510.23,202.44 C507.08,203.23 501.35,204.65 497.50,205.59 C489.64,207.51 478.03,211.11 473.50,213.02 C471.85,213.71 469.15,214.85 467.50,215.55 C458.11,219.53 447.70,224.78 442.00,228.41 C438.42,230.69 434.27,233.18 432.77,233.94 C431.26,234.70 429.24,236.04 428.27,236.92 C427.30,237.80 422.51,241.62 417.63,245.41 C403.31,256.53 385.07,275.71 376.82,288.32 C375.35,290.57 373.66,293.10 373.06,293.95 C368.08,301.04 364.04,308.06 359.79,317.00 C357.04,322.77 354.39,328.28 353.90,329.22 C352.85,331.28 350.10,339.64 347.09,350.00 C345.89,354.12 344.50,358.85 343.99,360.50 C343.12,363.30 341.97,369.78 339.99,383.00 C338.78,391.09 338.84,416.57 340.09,423.50 C340.69,426.80 341.77,432.88 342.50,437.00 C343.23,441.12 344.54,447.42 345.42,451.00 C349.02,465.73 349.38,469.06 349.36,488.00 C349.34,505.24 349.07,508.42 347.07,515.43 C345.82,519.79 344.41,524.06 343.94,524.93 C343.46,525.79 341.32,530.33 339.18,535.00 C330.64,553.63 311.02,570.97 293.00,575.83 C284.26,578.18 272.58,578.45 266.07,576.44 C263.01,575.50 260.05,574.39 259.50,573.98 C258.95,573.58 257.38,572.90 256.00,572.48 C252.65,571.45 242.24,561.36 240.03,557.00 C234.79,546.68 233.72,534.88 237.07,524.50 C239.69,516.39 243.00,511.56 250.23,505.28 C256.86,499.53 265.90,496.41 273.22,497.34 C275.57,497.64 280.09,498.19 283.25,498.57 L 289.00 499.25 L 289.00 496.03 C289.00,491.37 286.31,487.50 280.03,483.14 C270.62,476.60 266.39,475.50 250.91,475.53 C240.09,475.55 236.42,475.92 232.91,477.37 C213.48,485.40 203.04,493.59 195.16,507.00 C187.45,520.13 185.50,527.91 185.52,545.50 C185.54,565.11 187.80,573.17 198.07,590.29 C216.18,620.51 252.73,636.34 293.50,631.65 C303.48,630.50 321.88,625.41 330.00,621.54 C353.27,610.47 375.54,591.29 393.93,566.48 C396.37,563.19 398.62,560.28 398.94,560.00 C399.25,559.72 400.78,557.62 402.34,555.32 C403.90,553.03 406.70,550.42 408.56,549.54 C411.60,548.09 412.26,548.08 414.86,549.43 C416.45,550.25 418.04,551.65 418.38,552.54 C419.42,555.27 419.07,569.00 417.90,571.19 C417.29,572.33 416.41,575.56 415.94,578.38 C414.59,586.47 412.36,595.45 411.13,597.76 C410.51,598.92 410.00,600.60 410.00,601.49 C410.00,602.94 408.87,605.84 404.53,615.50 C403.79,617.15 402.41,620.53 401.47,623.00 C398.29,631.32 388.66,649.75 383.70,657.00 C382.01,659.47 378.80,664.20 376.57,667.50 C369.80,677.54 351.69,694.88 342.21,700.40 C330.53,707.21 323.46,709.27 313.50,708.75 C303.51,708.23 296.48,705.33 291.13,699.53 C280.52,688.02 280.29,674.47 290.51,663.88 C292.43,661.89 294.00,659.54 294.00,658.65 C294.00,654.82 283.27,655.26 274.93,659.44 C268.18,662.82 266.79,664.07 262.70,670.42 C257.01,679.25 255.83,684.22 256.26,697.64 C256.66,710.23 257.45,713.28 263.27,724.79 C268.11,734.36 280.45,745.94 291.14,750.94 C295.74,753.09 300.85,755.16 302.50,755.53 C304.15,755.91 307.43,756.85 309.78,757.61 C316.41,759.76 338.70,759.43 347.64,757.05 C374.53,749.90 392.21,738.52 413.18,714.90 C426.35,700.05 438.88,680.58 445.93,664.00 C446.52,662.62 447.37,660.83 447.83,660.00 C450.03,656.05 452.00,651.75 452.00,650.91 C452.00,650.40 453.51,646.05 455.35,641.24 C457.20,636.43 459.49,629.80 460.45,626.50 C461.40,623.20 462.62,619.05 463.15,617.27 C463.68,615.50 464.49,611.90 464.96,609.27 C466.77,599.10 471.09,579.39 471.98,577.30 C474.52,571.30 482.71,570.60 485.57,576.14 C486.89,578.68 486.95,580.70 486.00,590.30 C483.85,612.15 483.75,620.20 485.43,636.00 C488.07,660.71 490.96,672.63 497.62,686.33 C498.38,687.89 499.00,689.60 499.00,690.14 C499.00,691.68 503.00,700.05 505.85,704.46 C509.83,710.62 510.68,712.13 512.91,717.00 C514.05,719.47 515.43,722.17 515.99,723.00 C516.55,723.83 518.64,727.88 520.64,732.00 C527.56,746.26 528.32,765.51 522.44,777.13 C519.58,782.75 511.55,789.99 504.03,793.70 C499.03,796.17 497.46,796.43 487.50,796.44 C477.65,796.45 475.96,796.18 471.34,793.86 C464.27,790.31 456.19,783.30 453.83,778.67 C450.75,772.64 450.35,762.76 452.88,755.31 C455.40,747.87 454.94,746.00 450.55,746.00 C444.37,746.00 437.64,751.25 431.69,760.71 C427.96,766.64 426.32,779.02 427.93,788.97 C430.14,802.57 439.61,817.61 451.37,826.20 C454.19,828.26 457.04,830.40 457.71,830.97 C458.37,831.54 459.33,832.00 459.84,832.00 C460.34,832.00 461.29,832.65 461.95,833.44 C462.61,834.23 466.37,835.82 470.32,836.97 C474.27,838.12 479.52,839.68 482.00,840.44 C484.80,841.29 491.72,841.84 500.29,841.90 C511.90,841.98 515.71,841.60 524.29,839.48 ZM 429.00 439.94 C426.52,439.48 421.93,438.66 418.80,438.11 C415.66,437.57 412.20,436.64 411.11,436.06 C410.02,435.48 408.20,435.00 407.07,435.00 C400.59,435.00 382.09,422.85 376.37,414.85 C369.07,404.62 368.50,402.71 368.53,388.50 L 368.55 375.50 L 373.92 364.50 C378.34,355.44 380.62,352.12 386.89,345.66 C399.73,332.42 416.36,323.14 433.00,319.92 C435.48,319.44 439.30,318.60 441.50,318.05 C447.81,316.47 467.28,316.79 474.84,318.59 C491.21,322.51 498.13,325.22 507.08,331.22 C522.20,341.34 528.83,350.97 532.44,368.02 C534.50,377.72 533.01,386.53 527.16,399.34 C518.92,417.40 491.96,434.54 466.11,438.15 C444.27,441.21 437.64,441.53 429.00,439.94 ZM 426.00 437.83 C452.64,441.49 485.39,434.67 504.96,421.38 C513.25,415.75 522.09,405.67 526.34,397.00 L 530.50 388.50 L 530.46 375.50 C530.42,362.82 530.34,362.33 527.04,355.50 C523.08,347.29 511.74,335.40 503.00,330.28 C490.62,323.03 474.01,319.00 456.50,319.00 C430.34,319.00 407.26,327.93 389.64,344.86 C382.72,351.51 378.49,357.74 373.92,368.00 C370.70,375.23 370.58,375.97 370.54,388.50 C370.51,401.19 370.58,401.65 373.67,407.56 C381.69,422.91 401.70,434.49 426.00,437.83 ZM 459.50 403.25 C455.15,405.50 443.40,406.57 439.00,405.12 C426.35,400.96 420.00,392.40 420.00,379.50 C420.00,368.13 426.77,358.63 437.66,354.72 C450.41,350.15 464.69,356.00 471.27,368.50 C474.12,373.90 474.31,385.92 471.62,391.00 C469.02,395.94 464.18,400.82 459.50,403.25 ZM 460.98 400.48 C467.87,395.82 471.19,390.15 471.77,382.00 C472.19,376.17 471.89,374.46 469.65,369.72 C466.40,362.86 462.38,358.99 456.25,356.83 C443.54,352.35 430.01,357.12 424.49,368.03 C420.97,374.96 420.99,384.80 424.52,391.44 C427.66,397.35 428.41,398.09 434.55,401.42 C439.00,403.83 440.36,404.07 448.00,403.80 C455.54,403.53 457.01,403.16 460.98,400.48 Z" fill="rgb(94,94,94)"/>
<path d="M 517.57 844.95 C509.78,846.33 491.07,846.13 483.50,844.57 C455.17,838.77 432.17,818.82 425.88,794.62 C421.51,777.77 424.69,762.13 434.77,750.91 C447.44,736.81 463.79,740.73 456.00,756.00 C453.28,761.32 453.33,769.74 456.11,775.29 C460.36,783.80 467.53,789.47 477.00,791.79 C485.68,793.92 488.94,794.06 495.47,792.54 C508.20,789.59 514.71,784.53 519.89,773.57 C522.64,767.76 523.00,765.97 522.98,758.25 C522.96,744.29 519.04,733.79 504.06,707.50 C495.95,693.26 490.82,680.78 487.02,666.00 C482.11,646.93 481.91,645.44 481.33,623.76 C480.95,609.68 481.16,598.22 481.93,591.23 C483.26,579.22 482.51,575.00 479.05,575.00 C476.23,575.00 474.32,578.55 473.53,585.30 C472.89,590.71 468.77,607.71 462.71,630.00 C460.22,639.12 458.50,644.03 455.51,650.50 C454.75,652.15 453.23,655.53 452.14,658.00 C445.83,672.32 443.94,676.15 440.17,682.35 C437.88,686.12 436.00,689.40 436.00,689.65 C436.00,689.89 433.19,694.21 429.75,699.23 C419.79,713.80 404.54,729.96 391.50,739.81 C390.95,740.22 388.85,741.81 386.84,743.33 C381.18,747.61 360.24,757.46 353.00,759.24 C339.32,762.61 327.53,763.30 315.00,761.47 C295.47,758.60 281.99,752.02 270.29,739.63 C258.04,726.65 252.03,712.28 252.04,696.00 C252.05,678.17 259.14,664.95 273.36,656.26 C278.94,652.85 280.15,652.51 286.64,652.50 C292.27,652.50 294.23,652.91 295.89,654.40 C299.11,657.32 298.47,660.12 293.47,665.03 C287.48,670.91 285.48,677.15 287.08,685.00 C288.50,691.98 290.97,696.01 295.90,699.43 C310.65,709.65 332.65,705.78 351.50,689.64 C370.30,673.55 382.86,655.27 399.02,620.50 C401.79,614.54 405.39,604.62 408.45,594.50 C409.95,589.55 411.68,583.92 412.28,582.00 C413.54,578.00 414.80,570.23 415.60,561.50 C416.00,557.16 415.76,554.98 414.73,553.60 C411.96,549.90 408.74,552.22 399.52,564.56 C376.73,595.05 354.87,613.74 327.79,625.89 C306.12,635.61 278.89,638.52 255.64,633.59 C232.87,628.77 213.23,616.51 199.75,598.69 C191.28,587.51 187.23,578.75 183.05,562.65 C179.86,550.35 181.06,530.25 185.57,520.35 C186.35,518.62 187.00,516.63 187.00,515.93 C187.00,513.34 194.37,501.39 199.73,495.28 C205.82,488.34 215.73,480.92 223.50,477.47 C236.68,471.63 254.78,469.39 263.50,472.53 C265.70,473.32 268.35,473.98 269.39,473.98 C274.25,474.02 288.27,483.91 291.18,489.34 C293.69,494.03 293.89,497.88 291.75,500.59 C289.93,502.91 289.24,503.12 285.11,502.57 C269.56,500.53 265.45,500.69 259.05,503.56 C252.35,506.57 245.78,512.98 242.03,520.18 C237.43,528.99 237.75,545.72 242.68,554.55 C251.08,569.58 267.05,576.80 285.66,573.98 C299.00,571.95 310.02,565.86 321.76,554.03 C336.81,538.86 344.29,520.59 346.34,493.96 C347.29,481.68 344.36,459.74 338.28,433.59 C335.97,423.65 336.05,382.38 338.40,371.30 C342.68,351.13 345.27,341.69 348.50,334.50 C349.25,332.85 351.43,327.67 353.35,323.00 C355.28,318.33 359.77,309.44 363.34,303.27 C388.92,259.01 431.31,224.22 480.50,207.14 C503.43,199.17 512.20,197.50 539.75,195.81 C572.18,193.83 606.56,197.45 628.00,205.12 C631.03,206.21 637.36,208.36 642.07,209.92 C652.64,213.41 672.48,223.59 685.63,232.26 C714.90,251.58 738.13,277.53 750.74,305.00 C752.63,309.12 755.00,314.30 756.01,316.50 C763.03,331.84 767.65,358.51 766.65,378.00 C765.36,403.22 762.86,413.70 753.24,434.00 C740.75,460.39 719.84,479.41 694.44,487.50 C683.24,491.06 676.42,491.98 661.22,491.99 C646.60,492.00 642.53,493.01 639.70,497.33 C636.30,502.52 638.31,508.21 647.16,518.45 C657.05,529.88 673.02,543.53 687.00,552.46 C691.12,555.10 695.62,558.02 697.00,558.95 C698.38,559.87 704.00,562.81 709.50,565.47 C725.01,572.97 727.58,573.95 741.50,577.62 C754.58,581.07 777.83,581.59 787.46,578.64 C808.07,572.35 820.00,557.64 820.00,538.50 C820.00,531.02 817.79,521.61 815.40,518.92 C814.63,518.05 814.00,516.91 814.00,516.37 C814.00,514.62 806.59,508.33 802.00,506.19 C793.77,502.36 788.58,501.73 780.26,503.59 C773.03,505.19 772.72,505.18 770.15,503.27 C764.87,499.34 766.40,493.57 774.76,485.94 C777.79,483.17 781.89,480.08 783.88,479.08 C805.65,468.09 837.68,475.34 855.07,495.20 C860.63,501.55 867.00,511.11 867.00,513.11 C867.00,513.71 867.64,515.39 868.42,516.85 C873.48,526.31 875.43,540.51 874.02,557.50 C873.15,567.88 871.64,574.39 868.40,581.65 C867.63,583.38 867.00,585.27 867.00,585.85 C867.00,586.42 865.35,589.73 863.33,593.20 C850.26,615.67 830.36,631.34 804.00,639.94 C790.10,644.47 783.84,645.41 768.00,645.37 C749.82,645.32 734.88,642.84 722.00,637.73 C720.62,637.19 718.15,636.38 716.50,635.94 C699.68,631.44 670.49,615.33 648.50,598.39 C636.68,589.30 609.07,562.82 604.31,556.03 C602.17,552.98 597.32,549.94 595.63,550.59 C591.86,552.04 593.07,556.88 599.85,567.48 C602.48,571.59 613.46,586.12 617.98,591.48 C639.63,617.13 673.48,639.55 708.69,651.57 C717.20,654.47 732.09,661.54 737.25,665.12 C753.99,676.74 763.39,688.92 769.57,707.00 C772.35,715.13 772.17,734.22 769.24,742.60 C761.72,764.09 751.41,776.33 733.06,785.54 C721.84,791.17 711.49,793.32 698.55,792.72 C687.74,792.22 685.27,791.62 673.83,786.64 C669.31,784.67 658.47,774.78 656.24,770.59 C651.13,760.96 649.61,750.47 652.69,745.97 C656.54,740.35 659.88,740.52 664.02,746.53 C667.69,751.86 672.47,755.21 679.82,757.57 C684.87,759.19 685.44,759.18 691.08,757.48 C702.47,754.03 708.94,745.77 708.98,734.61 C709.00,727.65 706.40,721.68 700.81,715.93 C695.95,710.91 677.24,701.85 668.50,700.27 C666.85,699.97 664.61,699.11 663.53,698.36 C662.44,697.61 660.87,697.00 660.03,697.00 C657.87,696.99 645.92,691.95 636.69,687.14 C616.99,676.89 593.73,656.40 578.35,635.73 C570.02,624.54 557.14,603.40 554.34,596.30 C553.33,593.74 550.65,588.02 548.38,583.58 C541.93,570.91 539.13,573.00 539.10,590.50 C539.09,599.15 541.44,621.92 542.97,628.00 C544.75,635.06 551.15,655.39 551.94,656.50 C552.33,657.05 553.43,659.60 554.38,662.17 C555.33,664.74 558.33,670.51 561.05,674.99 C563.77,679.47 566.00,683.38 566.00,683.69 C566.00,683.99 568.41,688.12 571.36,692.87 C581.96,709.92 585.65,716.91 587.38,723.15 C588.34,726.64 589.78,731.53 590.57,734.00 C592.68,740.59 592.57,769.74 590.42,776.50 C585.73,791.21 584.58,794.10 580.74,800.82 C575.13,810.66 567.25,820.01 560.26,825.16 C557.09,827.49 553.95,829.94 553.27,830.61 C552.60,831.27 549.00,833.23 545.27,834.97 C541.55,836.71 537.72,838.55 536.78,839.06 C533.47,840.83 523.46,843.90 517.57,844.95 ZM 520.00 842.59 C553.91,835.22 578.15,812.61 588.19,779.00 C591.10,769.27 591.79,747.51 589.52,737.29 C586.67,724.45 583.10,715.61 575.76,703.24 C571.93,696.78 566.65,687.90 564.03,683.50 C552.63,664.36 546.67,649.59 541.20,626.90 C539.06,618.05 536.80,595.44 537.25,587.50 C537.82,577.46 539.39,573.79 542.93,574.20 C545.02,574.44 546.14,575.82 548.91,581.50 C566.93,618.51 575.97,632.47 594.89,652.50 C608.61,667.03 624.67,679.36 639.50,686.75 C647.00,690.49 662.47,696.47 675.00,700.46 C691.03,705.57 704.28,714.78 708.58,723.79 C713.01,733.05 710.99,744.66 703.73,751.75 C691.66,763.56 675.75,762.61 664.48,749.42 C659.25,743.31 656.52,742.66 654.23,747.00 C650.63,753.84 655.93,769.99 664.31,777.72 C674.49,787.10 685.51,791.00 701.83,791.00 C713.81,791.00 721.39,789.34 731.50,784.51 C756.77,772.43 771.23,748.34 769.65,721.00 C768.63,703.41 762.70,690.55 749.57,677.47 C739.21,667.15 729.50,661.50 707.32,652.87 C684.20,643.89 663.35,633.11 650.70,623.60 C629.87,607.95 615.91,593.35 599.61,570.15 C592.55,560.12 590.30,553.10 593.20,550.20 C596.37,547.03 598.90,548.84 617.78,567.86 C650.73,601.04 676.03,618.53 711.00,632.30 C730.65,640.04 747.32,643.27 768.00,643.35 C784.63,643.41 792.61,642.18 807.00,637.31 C830.28,629.44 851.00,612.35 862.44,591.58 C865.90,585.30 870.48,571.41 871.90,562.92 C877.62,528.66 861.82,494.31 834.65,482.00 C810.66,471.12 783.63,475.11 771.93,491.25 C768.49,496.00 768.23,498.99 771.01,501.51 C772.80,503.13 773.59,503.21 778.09,502.17 C795.40,498.17 810.25,505.05 818.08,520.69 C821.30,527.14 821.48,528.06 821.49,538.02 C821.50,547.88 821.30,548.95 818.23,555.18 C812.06,567.71 801.92,576.20 788.21,580.29 C780.02,582.74 756.80,583.23 748.00,581.14 C725.07,575.70 706.06,567.18 685.13,552.96 C656.41,533.45 634.14,509.57 636.37,500.66 C637.37,496.67 641.81,492.15 645.81,491.03 C647.84,490.47 656.25,490.01 664.50,490.00 C677.35,490.00 680.86,489.63 689.00,487.47 C720.84,479.01 746.07,454.03 757.42,419.71 C764.04,399.73 764.51,396.59 764.43,373.00 C764.37,354.42 764.06,350.21 762.13,342.00 C751.29,295.83 725.34,260.08 682.05,231.67 C664.65,220.25 635.43,207.66 617.50,203.86 C614.75,203.28 610.47,202.37 608.00,201.85 C588.02,197.63 579.21,196.77 556.00,196.79 C535.33,196.80 530.76,197.11 518.00,199.35 C491.61,203.98 474.69,209.51 453.00,220.58 C397.88,248.73 356.07,301.02 343.12,358.00 C341.94,363.23 340.45,369.52 339.82,372.00 C338.24,378.23 337.52,418.04 338.85,426.07 C340.52,436.22 341.78,442.92 343.54,451.00 C349.02,476.13 349.46,497.80 344.86,516.00 C337.26,546.06 313.98,570.00 287.00,575.50 C279.79,576.97 277.51,577.05 271.85,576.04 C257.94,573.56 246.41,565.60 240.70,554.54 C237.75,548.82 237.58,547.88 237.54,537.00 C237.51,526.28 237.70,525.13 240.36,520.00 C243.74,513.46 251.05,505.59 256.22,502.92 C262.94,499.44 269.41,498.62 279.18,500.03 C287.33,501.19 288.17,501.15 290.01,499.49 C292.44,497.29 292.54,494.79 290.32,491.21 C285.46,483.39 276.98,477.69 266.14,474.96 C247.65,470.30 226.75,474.96 210.31,487.39 C182.87,508.16 174.94,549.46 191.95,583.04 C201.40,601.70 214.66,614.81 233.64,624.28 C249.30,632.10 271.07,635.92 288.57,633.94 C306.94,631.85 319.21,628.43 333.19,621.50 C357.49,609.46 376.62,592.37 399.24,562.50 C406.91,552.37 407.87,551.48 411.23,551.19 C418.11,550.61 419.53,557.07 415.93,572.63 C408.03,606.81 396.60,634.22 379.41,660.17 C369.29,675.46 353.15,692.17 342.23,698.68 C319.98,711.93 296.45,709.01 287.70,691.91 C282.69,682.11 284.46,671.58 292.37,664.05 C296.64,660.00 296.94,657.66 293.49,655.40 C288.41,652.07 277.27,654.83 268.26,661.64 C263.28,665.40 257.18,675.13 255.37,682.20 C253.24,690.52 253.94,707.20 256.76,715.00 C264.46,736.34 281.13,751.22 305.20,758.22 C311.22,759.98 315.13,760.35 327.50,760.34 C340.59,760.33 343.73,759.99 352.19,757.68 C371.97,752.27 388.85,742.03 406.05,725.00 C437.81,693.55 459.28,649.27 470.51,592.00 C473.53,576.65 474.76,574.00 478.90,574.00 C484.89,574.00 485.16,575.73 483.22,602.09 C482.32,614.29 482.27,622.10 483.04,631.59 C484.05,644.07 486.43,660.27 487.51,662.01 C487.80,662.48 488.45,664.81 488.95,667.18 C491.53,679.30 497.58,693.09 510.32,715.88 C521.69,736.21 524.36,744.19 524.44,758.00 C524.50,767.65 524.26,768.98 521.57,774.46 C517.96,781.81 512.15,787.58 504.41,791.51 C498.90,794.30 497.75,794.50 487.50,794.49 C477.56,794.47 475.97,794.21 471.00,791.75 C464.18,788.37 457.82,782.53 455.04,777.08 C452.10,771.31 452.09,761.67 455.03,754.43 C457.10,749.33 457.13,748.85 455.59,746.50 C453.15,742.78 447.60,743.07 441.41,747.25 C429.88,755.03 423.34,772.15 425.88,787.85 C430.05,813.54 451.03,834.40 480.32,841.97 C489.38,844.31 510.54,844.64 520.00,842.59 ZM 426.00 437.83 C401.70,434.49 381.69,422.91 373.67,407.56 C370.58,401.65 370.51,401.19 370.54,388.50 C370.58,375.97 370.70,375.23 373.92,368.00 C378.49,357.74 382.72,351.51 389.64,344.86 C407.26,327.93 430.34,319.00 456.50,319.00 C474.01,319.00 490.62,323.03 503.00,330.28 C511.74,335.40 523.08,347.29 527.04,355.50 C530.34,362.33 530.42,362.82 530.46,375.50 L 530.50 388.50 L 526.34 397.00 C522.09,405.67 513.25,415.75 504.96,421.38 C485.39,434.67 452.64,441.49 426.00,437.83 ZM 426.50 436.08 C435.72,436.94 460.61,436.27 466.50,435.01 C481.47,431.80 492.52,427.39 503.14,420.38 C509.87,415.93 521.36,404.55 523.06,400.64 C523.58,399.46 524.39,397.83 524.88,397.00 C529.60,388.97 530.72,370.53 527.12,360.12 C524.51,352.57 522.91,349.98 517.02,343.66 C510.95,337.16 500.78,330.55 490.25,326.26 C473.56,319.45 449.22,318.41 430.00,323.68 C417.99,326.97 405.37,333.53 395.68,341.53 C388.62,347.36 377.00,362.03 377.00,365.12 C377.00,366.09 376.61,367.12 376.14,367.41 C374.35,368.52 371.80,380.63 371.72,388.41 C371.63,397.02 373.47,404.80 376.95,410.42 C384.74,423.02 406.34,434.21 426.50,436.08 ZM 456.06 406.48 C450.70,408.37 443.01,408.33 436.64,406.37 C430.64,404.52 422.78,397.01 419.77,390.23 C414.08,377.39 420.56,361.47 434.44,354.19 C438.67,351.97 440.73,351.55 447.00,351.61 C456.03,351.70 460.52,353.69 467.37,360.64 C471.04,364.36 472.51,366.88 474.15,372.27 C476.45,379.83 476.29,382.57 473.06,391.16 C471.36,395.65 469.84,397.65 465.65,400.89 C462.74,403.13 458.43,405.64 456.06,406.48 ZM 459.50 403.25 C464.18,400.82 469.02,395.94 471.62,391.00 C474.31,385.92 474.12,373.90 471.27,368.50 C464.69,356.00 450.41,350.15 437.66,354.72 C426.77,358.63 420.00,368.13 420.00,379.50 C420.00,392.40 426.35,400.96 439.00,405.12 C443.40,406.57 455.15,405.50 459.50,403.25 Z" fill="rgb(192,192,192)"/>
<path d="M 0.00 512.00 L 0.00 0.00 L 512.00 0.00 L 1024.00 0.00 L 1024.00 512.00 L 1024.00 1024.00 L 512.00 1024.00 L 0.00 1024.00 L 0.00 512.00 ZM 517.57 844.95 C523.46,843.90 533.47,840.83 536.78,839.06 C537.72,838.55 541.55,836.71 545.27,834.97 C549.00,833.23 552.60,831.27 553.27,830.61 C553.95,829.94 557.09,827.49 560.26,825.16 C567.25,820.01 575.13,810.66 580.74,800.82 C584.58,794.10 585.73,791.21 590.42,776.50 C592.57,769.74 592.68,740.59 590.57,734.00 C589.78,731.53 588.34,726.64 587.38,723.15 C585.65,716.91 581.96,709.92 571.36,692.87 C568.41,688.12 566.00,683.99 566.00,683.69 C566.00,683.38 563.77,679.47 561.05,674.99 C558.33,670.51 555.33,664.74 554.38,662.17 C553.43,659.60 552.33,657.05 551.94,656.50 C551.15,655.39 544.75,635.06 542.97,628.00 C541.44,621.92 539.09,599.15 539.10,590.50 C539.13,573.00 541.93,570.91 548.38,583.58 C550.65,588.02 553.33,593.74 554.34,596.30 C557.14,603.40 570.02,624.54 578.35,635.73 C593.73,656.40 616.99,676.89 636.69,687.14 C645.92,691.95 657.87,696.99 660.03,697.00 C660.87,697.00 662.44,697.61 663.53,698.36 C664.61,699.11 666.85,699.97 668.50,700.27 C677.24,701.85 695.95,710.91 700.81,715.93 C706.40,721.68 709.00,727.65 708.98,734.61 C708.94,745.77 702.47,754.03 691.08,757.48 C685.44,759.18 684.87,759.19 679.82,757.57 C672.47,755.21 667.69,751.86 664.02,746.53 C659.88,740.52 656.54,740.35 652.69,745.97 C649.61,750.47 651.13,760.96 656.24,770.59 C658.47,774.78 669.31,784.67 673.83,786.64 C685.27,791.62 687.74,792.22 698.55,792.72 C711.49,793.32 721.84,791.17 733.06,785.54 C751.41,776.33 761.72,764.09 769.24,742.60 C772.17,734.22 772.35,715.13 769.57,707.00 C763.39,688.92 753.99,676.74 737.25,665.12 C732.09,661.54 717.20,654.47 708.69,651.57 C673.48,639.55 639.63,617.13 617.98,591.48 C613.46,586.12 602.48,571.59 599.85,567.48 C593.07,556.88 591.86,552.04 595.63,550.59 C597.32,549.94 602.17,552.98 604.31,556.03 C609.07,562.82 636.68,589.30 648.50,598.39 C670.49,615.33 699.68,631.44 716.50,635.94 C718.15,636.38 720.62,637.19 722.00,637.73 C734.88,642.84 749.82,645.32 768.00,645.37 C783.84,645.41 790.10,644.47 804.00,639.94 C830.36,631.34 850.26,615.67 863.33,593.20 C865.35,589.73 867.00,586.42 867.00,585.85 C867.00,585.27 867.63,583.38 868.40,581.65 C871.64,574.39 873.15,567.88 874.02,557.50 C875.43,540.51 873.48,526.31 868.42,516.85 C867.64,515.39 867.00,513.71 867.00,513.11 C867.00,511.11 860.63,501.55 855.07,495.20 C837.68,475.34 805.65,468.09 783.88,479.08 C781.89,480.08 777.79,483.17 774.76,485.94 C766.40,493.57 764.87,499.34 770.15,503.27 C772.72,505.18 773.03,505.19 780.26,503.59 C788.58,501.73 793.77,502.36 802.00,506.19 C806.59,508.33 814.00,514.62 814.00,516.37 C814.00,516.91 814.63,518.05 815.40,518.92 C817.79,521.61 820.00,531.02 820.00,538.50 C820.00,557.64 808.07,572.35 787.46,578.64 C777.83,581.59 754.58,581.07 741.50,577.62 C727.58,573.95 725.01,572.97 709.50,565.47 C704.00,562.81 698.38,559.87 697.00,558.95 C695.62,558.02 691.12,555.10 687.00,552.46 C673.02,543.53 657.05,529.88 647.16,518.45 C638.31,508.21 636.30,502.52 639.70,497.33 C642.53,493.01 646.60,492.00 661.22,491.99 C676.42,491.98 683.24,491.06 694.44,487.50 C719.84,479.41 740.75,460.39 753.24,434.00 C762.86,413.70 765.36,403.22 766.65,378.00 C767.65,358.51 763.03,331.84 756.01,316.50 C755.00,314.30 752.63,309.12 750.74,305.00 C738.13,277.53 714.90,251.58 685.63,232.26 C672.48,223.59 652.64,213.41 642.07,209.92 C637.36,208.36 631.03,206.21 628.00,205.12 C606.56,197.45 572.18,193.83 539.75,195.81 C512.20,197.50 503.43,199.17 480.50,207.14 C431.31,224.22 388.92,259.01 363.34,303.27 C359.77,309.44 355.28,318.33 353.35,323.00 C351.43,327.67 349.25,332.85 348.50,334.50 C345.27,341.69 342.68,351.13 338.40,371.30 C336.05,382.38 335.97,423.65 338.28,433.59 C344.36,459.74 347.29,481.68 346.34,493.96 C344.29,520.59 336.81,538.86 321.76,554.03 C310.02,565.86 299.00,571.95 285.66,573.98 C267.05,576.80 251.08,569.58 242.68,554.55 C237.75,545.72 237.43,528.99 242.03,520.18 C245.78,512.98 252.35,506.57 259.05,503.56 C265.45,500.69 269.56,500.53 285.11,502.57 C289.24,503.12 289.93,502.91 291.75,500.59 C293.89,497.88 293.69,494.03 291.18,489.34 C288.27,483.91 274.25,474.02 269.39,473.98 C268.35,473.98 265.70,473.32 263.50,472.53 C254.78,469.39 236.68,471.63 223.50,477.47 C215.73,480.92 205.82,488.34 199.73,495.28 C194.37,501.39 187.00,513.34 187.00,515.93 C187.00,516.63 186.35,518.62 185.57,520.35 C181.06,530.25 179.86,550.35 183.05,562.65 C187.23,578.75 191.28,587.51 199.75,598.69 C213.23,616.51 232.87,628.77 255.64,633.59 C278.89,638.52 306.12,635.61 327.79,625.89 C354.87,613.74 376.73,595.05 399.52,564.56 C408.74,552.22 411.96,549.90 414.73,553.60 C415.76,554.98 416.00,557.16 415.60,561.50 C414.80,570.23 413.54,578.00 412.28,582.00 C411.68,583.92 409.95,589.55 408.45,594.50 C405.39,604.62 401.79,614.54 399.02,620.50 C382.86,655.27 370.30,673.55 351.50,689.64 C332.65,705.78 310.65,709.65 295.90,699.43 C290.97,696.01 288.50,691.98 287.08,685.00 C285.48,677.15 287.48,670.91 293.47,665.03 C298.47,660.12 299.11,657.32 295.89,654.40 C294.23,652.91 292.27,652.50 286.64,652.50 C280.15,652.51 278.94,652.85 273.36,656.26 C259.14,664.95 252.05,678.17 252.04,696.00 C252.03,712.28 258.04,726.65 270.29,739.63 C281.99,752.02 295.47,758.60 315.00,761.47 C327.53,763.30 339.32,762.61 353.00,759.24 C360.24,757.46 381.18,747.61 386.84,743.33 C388.85,741.81 390.95,740.22 391.50,739.81 C404.54,729.96 419.79,713.80 429.75,699.23 C433.19,694.21 436.00,689.89 436.00,689.65 C436.00,689.40 437.88,686.12 440.17,682.35 C443.94,676.15 445.83,672.32 452.14,658.00 C453.23,655.53 454.75,652.15 455.51,650.50 C458.50,644.03 460.22,639.12 462.71,630.00 C468.77,607.71 472.89,590.71 473.53,585.30 C474.32,578.55 476.23,575.00 479.05,575.00 C482.51,575.00 483.26,579.22 481.93,591.23 C481.16,598.22 480.95,609.68 481.33,623.76 C481.91,645.44 482.11,646.93 487.02,666.00 C490.82,680.78 495.95,693.26 504.06,707.50 C519.04,733.79 522.96,744.29 522.98,758.25 C523.00,765.97 522.64,767.76 519.89,773.57 C514.71,784.53 508.20,789.59 495.47,792.54 C488.94,794.06 485.68,793.92 477.00,791.79 C467.53,789.47 460.36,783.80 456.11,775.29 C453.33,769.74 453.28,761.32 456.00,756.00 C463.79,740.73 447.44,736.81 434.77,750.91 C424.69,762.13 421.51,777.77 425.88,794.62 C432.17,818.82 455.17,838.77 483.50,844.57 C491.07,846.13 509.78,846.33 517.57,844.95 ZM 426.50 436.08 C406.34,434.21 384.74,423.02 376.95,410.42 C373.47,404.80 371.63,397.02 371.72,388.41 C371.80,380.63 374.35,368.52 376.14,367.41 C376.61,367.12 377.00,366.09 377.00,365.12 C377.00,362.03 388.62,347.36 395.68,341.53 C405.37,333.53 417.99,326.97 430.00,323.68 C449.22,318.41 473.56,319.45 490.25,326.26 C500.78,330.55 510.95,337.16 517.02,343.66 C522.91,349.98 524.51,352.57 527.12,360.12 C530.72,370.53 529.60,388.97 524.88,397.00 C524.39,397.83 523.58,399.46 523.06,400.64 C521.36,404.55 509.87,415.93 503.14,420.38 C492.52,427.39 481.47,431.80 466.50,435.01 C460.61,436.27 435.72,436.94 426.50,436.08 ZM 456.06 406.48 C458.43,405.64 462.74,403.13 465.65,400.89 C469.84,397.65 471.36,395.65 473.06,391.16 C476.29,382.57 476.45,379.83 474.15,372.27 C472.51,366.88 471.04,364.36 467.37,360.64 C460.52,353.69 456.03,351.70 447.00,351.61 C440.73,351.55 438.67,351.97 434.44,354.19 C420.56,361.47 414.08,377.39 419.77,390.23 C422.78,397.01 430.64,404.52 436.64,406.37 C443.01,408.33 450.70,408.37 456.06,406.48 Z" fill="rgb(254,254,254)"/>
</g>
</svg>