<svg xmlns="http://www.w3.org/2000/svg" width="612" height="408" viewBox="0 0 612 408">
<g>
<path d="M 305.03 301.47 C303.25,303.61 294.58,303.24 291.61,300.90 C290.27,299.86 287.85,299.00 286.21,299.00 C283.98,299.00 282.56,298.11 280.52,295.44 C278.93,293.35 278.00,291.10 278.29,290.00 C278.56,288.97 278.13,287.21 277.34,286.08 C276.26,284.53 276.17,283.54 276.99,282.02 C278.53,279.15 280.64,279.52 281.80,282.86 C282.64,285.25 286.13,288.29 292.63,292.28 C293.26,292.66 294.90,292.08 296.29,290.99 C297.68,289.89 299.67,289.00 300.71,289.00 C303.05,289.00 305.00,287.15 305.00,284.92 C305.00,284.00 305.67,282.68 306.50,282.00 C307.33,281.32 308.00,279.88 308.00,278.82 C308.00,275.18 304.69,266.51 301.34,261.40 C299.50,258.59 298.00,255.61 298.00,254.77 C298.00,253.93 297.34,251.67 296.54,249.74 C295.58,247.45 294.98,241.95 294.82,233.90 C294.61,223.53 294.28,221.28 292.75,219.75 C290.03,217.03 287.80,218.92 286.39,225.15 C284.08,235.37 282.88,239.51 281.94,240.45 C281.42,240.97 281.00,242.60 281.00,244.07 C281.00,245.53 280.10,247.87 279.00,249.27 C277.90,250.67 277.00,252.37 277.00,253.05 C277.00,254.45 275.89,255.73 266.44,265.25 C262.76,268.96 259.07,272.00 258.24,272.00 C257.41,272.00 255.19,272.96 253.30,274.12 C250.35,275.95 248.76,276.18 242.09,275.80 C235.24,275.40 233.76,274.95 229.66,272.00 C227.10,270.17 224.97,268.40 224.92,268.08 C224.71,266.49 224.02,264.19 222.86,261.27 C221.72,258.41 221.83,257.52 223.81,253.45 C226.50,247.91 228.57,248.01 228.16,253.65 C227.79,258.82 229.59,260.32 240.22,263.67 C242.36,264.35 252.96,260.06 252.70,258.62 C252.59,258.05 253.40,257.16 254.51,256.65 C255.61,256.15 257.64,253.91 259.01,251.68 C260.38,249.45 262.18,246.91 263.02,246.04 C265.31,243.66 270.00,233.61 270.00,231.08 C270.00,229.86 270.69,228.16 271.54,227.32 C272.71,226.15 273.01,224.03 272.79,218.64 C272.53,212.21 272.29,211.47 270.36,211.19 C268.74,210.96 266.78,212.63 262.37,217.98 C259.16,221.89 255.51,225.34 254.25,225.65 C253.00,225.97 250.96,227.49 249.73,229.03 C248.51,230.58 246.15,232.08 244.50,232.37 C242.85,232.65 239.33,233.58 236.67,234.42 C234.01,235.26 229.19,236.06 225.95,236.19 C221.20,236.37 219.48,235.99 217.07,234.21 C215.43,232.99 213.64,232.00 213.10,232.00 C211.19,232.00 203.49,222.83 202.33,219.19 C199.79,211.20 201.10,203.61 206.38,195.75 C207.77,193.69 209.05,193.00 211.49,193.00 C213.29,193.00 215.32,192.32 216.00,191.50 C217.59,189.59 222.39,189.56 223.96,191.46 C225.58,193.40 224.67,194.62 221.06,195.34 C212.83,196.98 210.80,216.44 218.45,220.30 C223.74,222.96 231.88,223.12 236.64,220.65 C240.69,218.55 248.00,210.88 248.00,208.73 C248.00,208.14 248.69,206.90 249.52,205.97 C251.50,203.79 251.82,185.44 250.06,175.50 C248.41,166.15 248.66,158.65 250.90,150.91 C254.99,136.75 264.20,124.43 277.40,115.47 C282.34,112.12 287.45,108.97 288.50,108.64 C289.05,108.47 291.75,107.51 294.50,106.52 C298.34,105.13 302.50,104.70 312.50,104.69 C330.35,104.66 335.15,105.49 344.40,110.17 C357.39,116.74 361.42,119.57 362.29,122.73 C362.40,123.15 363.96,124.78 365.75,126.35 C367.54,127.92 369.00,129.80 369.00,130.52 C369.00,131.24 370.07,132.66 371.37,133.67 C374.02,135.71 376.68,144.82 378.00,156.32 C378.70,162.42 378.48,163.98 375.91,171.25 C373.08,179.24 368.21,186.00 365.26,186.00 C364.52,186.00 362.69,187.22 361.20,188.71 C358.80,191.13 357.55,191.49 349.90,191.96 C340.16,192.57 338.00,193.75 338.00,198.46 C338.00,200.90 338.59,201.95 340.42,202.78 C341.76,203.39 342.99,204.92 343.17,206.19 C343.38,207.65 344.28,208.61 345.63,208.80 C346.81,208.97 348.95,210.43 350.39,212.05 C351.83,213.67 353.70,215.00 354.55,215.00 C355.39,215.00 357.84,216.80 360.00,219.00 C363.20,222.27 364.61,223.00 367.71,223.01 C369.79,223.01 374.20,223.46 377.50,224.02 C382.23,224.81 384.24,224.72 387.00,223.58 C388.92,222.79 391.77,221.87 393.32,221.54 C395.35,221.10 396.56,219.90 397.69,217.21 C401.54,208.04 400.25,200.83 393.98,196.48 C389.93,193.68 389.75,192.74 392.95,191.03 C394.33,190.29 395.42,190.54 397.30,192.02 C398.68,193.11 400.58,194.00 401.51,194.00 C403.74,194.00 409.10,199.81 409.65,202.83 C409.88,204.15 410.74,205.88 411.54,206.68 C412.02,207.16 412.37,207.51 412.59,207.92 C413.19,209.03 412.89,210.64 411.77,216.61 L 411.75 216.69 C410.60,222.80 410.03,223.81 404.63,229.21 C397.86,235.98 392.58,239.00 387.51,239.00 C385.26,239.00 383.72,239.55 383.36,240.50 C382.70,242.21 379.35,242.54 378.81,240.94 C378.62,240.35 376.44,239.62 373.98,239.30 C371.52,238.99 368.83,238.16 368.00,237.45 C367.17,236.74 365.15,235.82 363.50,235.42 C359.45,234.42 348.09,228.34 345.00,225.51 C343.62,224.25 339.48,220.26 335.78,216.63 C328.91,209.90 327.00,209.26 324.97,213.05 C323.60,215.62 323.75,216.75 325.75,218.76 C326.71,219.73 329.30,222.77 331.50,225.51 C333.70,228.26 336.17,231.02 337.00,231.66 C337.83,232.29 340.18,234.32 342.24,236.16 C346.68,240.13 354.29,244.08 362.34,246.57 C371.94,249.55 377.80,256.17 379.70,266.18 C380.59,270.88 375.81,279.27 370.19,282.88 C367.51,284.59 364.80,286.00 364.16,286.00 C363.52,286.00 363.00,286.45 363.00,287.00 C363.00,288.75 359.80,288.08 357.94,285.93 C356.96,284.80 354.88,283.53 353.33,283.11 C351.77,282.70 350.35,281.60 350.18,280.68 C349.90,279.26 350.77,279.00 355.74,279.00 C363.55,279.00 365.29,277.65 365.17,271.65 C365.09,267.78 364.42,266.19 361.32,262.48 C359.26,260.02 356.98,258.00 356.25,258.00 C355.53,258.00 353.84,257.29 352.51,256.42 C351.18,255.54 349.23,255.11 348.16,255.45 C346.91,255.85 345.22,255.22 343.36,253.67 C341.79,252.35 339.44,250.94 338.15,250.54 C333.24,249.00 319.08,234.10 319.02,230.40 C319.01,229.80 318.15,228.54 317.11,227.60 C316.08,226.67 314.98,224.63 314.67,223.08 C314.04,219.94 311.43,218.40 309.48,220.02 C308.78,220.59 307.65,222.44 306.95,224.12 C305.87,226.73 305.98,228.12 307.75,233.83 C308.88,237.50 310.78,243.75 311.97,247.73 C313.24,252.00 315.02,255.68 316.31,256.73 C317.52,257.70 319.81,260.98 321.42,264.00 C323.03,267.02 324.83,269.83 325.42,270.23 C326.15,270.73 326.10,270.97 325.25,270.98 C324.40,271.00 323.99,272.84 323.98,276.75 C323.97,281.32 323.40,283.34 321.23,286.61 C319.73,288.87 317.29,292.52 315.82,294.73 C313.83,297.71 312.23,298.92 309.67,299.40 C307.76,299.76 305.67,300.69 305.03,301.47 ZM 270.70 178.61 C274.58,179.90 278.79,180.67 280.50,180.39 C288.57,179.08 290.06,178.71 290.57,177.89 C290.87,177.40 291.97,177.00 293.01,177.00 C294.05,177.00 296.83,175.68 299.20,174.07 C306.78,168.91 309.00,165.28 309.00,158.02 C309.00,151.83 307.51,148.79 301.83,143.37 L 297.50 139.25 L 286.70 138.63 C275.46,137.99 274.81,138.12 266.36,142.87 C260.86,145.97 256.84,149.94 256.34,152.76 C256.08,154.27 255.70,158.54 255.49,162.25 L 255.12 169.00 L 259.51 172.67 C262.01,174.76 266.81,177.31 270.70,178.61 ZM 285.07 163.96 C282.45,165.36 277.67,165.27 276.20,163.80 C275.54,163.14 275.00,161.68 275.00,160.55 C275.01,158.17 278.72,151.69 279.78,152.20 C285.15,154.79 286.99,156.71 286.99,159.71 C287.00,161.87 286.36,163.27 285.07,163.96 Z" fill="rgb(42,59,188)"/>
<path d="M 305.03 301.47 C305.67,300.69 307.76,299.76 309.67,299.40 C312.23,298.92 313.83,297.71 315.82,294.73 C317.29,292.52 319.73,288.87 321.23,286.61 C323.40,283.34 323.97,281.32 323.98,276.75 C323.99,272.84 324.40,271.00 325.25,270.98 C325.33,270.98 325.40,270.98 325.46,270.98 C325.59,271.97 325.68,273.06 325.75,274.34 C326.55,287.26 320.74,297.13 309.37,302.16 C293.54,309.17 275.00,299.49 275.00,284.22 C275.00,279.61 275.42,278.43 277.92,275.92 C279.53,274.32 281.58,273.00 282.48,273.00 C283.85,273.00 284.01,273.72 283.46,277.39 C282.68,282.61 283.92,285.39 287.98,287.49 C297.19,292.25 307.17,285.21 305.43,275.20 C305.07,273.16 303.01,268.17 300.85,264.10 C294.14,251.46 292.80,246.16 292.79,232.20 C292.79,221.70 292.56,219.94 291.26,220.20 C290.22,220.40 288.97,223.68 287.33,230.50 C283.80,245.24 277.33,257.88 269.11,266.10 C265.47,269.73 260.48,273.74 258.00,275.01 C252.52,277.82 241.07,278.84 235.55,277.02 C227.52,274.37 221.06,265.68 221.03,257.50 C221.00,251.02 226.08,245.12 231.75,245.04 C234.35,244.99 234.66,246.49 232.50,248.64 C230.50,250.64 230.59,256.45 232.66,258.51 C239.06,264.92 250.74,260.51 258.94,248.59 C265.58,238.94 272.00,222.67 272.00,215.51 C272.00,211.25 268.85,212.66 264.00,219.09 C255.13,230.85 240.81,239.00 229.02,239.00 C222.92,239.00 213.78,235.71 208.62,231.67 C203.36,227.54 199.00,218.28 199.00,211.22 C199.00,198.13 208.05,189.00 221.04,189.00 C226.50,189.00 227.48,189.32 230.14,191.99 C231.79,193.63 232.85,195.43 232.51,195.99 C232.16,196.55 229.77,197.01 227.19,197.02 C219.86,197.06 216.00,201.20 216.00,209.03 C216.00,212.42 216.62,213.82 219.32,216.52 C223.62,220.82 228.58,221.81 234.48,219.56 C239.51,217.64 245.34,211.67 248.08,205.64 C250.39,200.54 250.58,188.47 248.50,179.00 C244.01,158.57 251.05,136.86 267.17,121.46 C284.16,105.23 307.27,98.84 331.07,103.78 C345.05,106.68 354.72,111.72 364.12,120.99 C380.24,136.87 384.96,157.30 376.69,175.36 C371.35,187.03 362.53,193.07 349.75,193.81 C338.23,194.48 337.50,197.52 346.78,206.20 C353.80,212.77 361.97,217.77 370.27,220.59 C378.70,223.46 384.08,223.61 389.50,221.12 C394.34,218.90 396.37,216.66 397.91,211.87 C400.34,204.29 393.88,196.11 386.42,197.32 C382.75,197.91 381.64,197.10 382.62,194.55 C383.66,191.84 388.58,190.00 394.80,190.00 C401.79,190.00 405.83,192.27 410.36,198.70 C412.80,202.18 413.37,204.15 413.78,210.45 C414.23,217.44 414.02,218.52 411.10,224.45 C405.60,235.62 396.17,241.24 382.56,241.45 C382.92,241.21 383.21,240.89 383.36,240.50 C383.72,239.55 385.26,239.00 387.51,239.00 C392.58,239.00 397.86,235.98 404.63,229.21 C410.03,223.81 410.60,222.80 411.75,216.69 L 411.77 216.61 C412.89,210.64 413.19,209.03 412.59,207.92 C412.37,207.51 412.02,207.16 411.54,206.68 C410.74,205.88 409.88,204.15 409.65,202.83 C409.10,199.81 403.74,194.00 401.51,194.00 C400.58,194.00 398.68,193.11 397.30,192.02 C395.42,190.54 394.33,190.29 392.95,191.03 C389.75,192.74 389.93,193.68 393.98,196.48 C400.25,200.83 401.54,208.04 397.69,217.21 C396.56,219.90 395.35,221.10 393.32,221.54 C391.77,221.87 388.92,222.79 387.00,223.58 C384.24,224.72 382.23,224.81 377.50,224.02 C374.20,223.46 369.79,223.01 367.71,223.01 C364.61,223.00 363.20,222.27 360.00,219.00 C357.84,216.80 355.39,215.00 354.55,215.00 C353.70,215.00 351.83,213.67 350.39,212.05 C348.95,210.43 346.81,208.97 345.63,208.80 C344.28,208.61 343.38,207.65 343.17,206.19 C342.99,204.92 341.76,203.39 340.42,202.78 C338.59,201.95 338.00,200.90 338.00,198.46 C338.00,193.75 340.16,192.57 349.90,191.96 C357.55,191.49 358.80,191.13 361.20,188.71 C362.69,187.22 364.52,186.00 365.26,186.00 C368.21,186.00 373.08,179.24 375.91,171.25 C378.48,163.98 378.70,162.42 378.00,156.32 C376.68,144.82 374.02,135.71 371.37,133.67 C370.07,132.66 369.00,131.24 369.00,130.52 C369.00,129.80 367.54,127.92 365.75,126.35 C363.96,124.78 362.40,123.15 362.29,122.73 C361.42,119.57 357.39,116.74 344.40,110.17 C335.15,105.49 330.35,104.66 312.50,104.69 C302.50,104.70 298.34,105.13 294.50,106.52 C291.75,107.51 289.05,108.47 288.50,108.64 C287.45,108.97 282.34,112.12 277.40,115.47 C264.20,124.43 254.99,136.75 250.90,150.91 C248.66,158.65 248.41,166.15 250.06,175.50 C251.82,185.44 251.50,203.79 249.52,205.97 C248.69,206.90 248.00,208.14 248.00,208.73 C248.00,210.88 240.69,218.55 236.64,220.65 C231.88,223.12 223.74,222.96 218.45,220.30 C210.80,216.44 212.83,196.98 221.06,195.34 C224.67,194.62 225.58,193.40 223.96,191.46 C222.39,189.56 217.59,189.59 216.00,191.50 C215.32,192.32 213.29,193.00 211.49,193.00 C209.05,193.00 207.77,193.69 206.38,195.75 C201.10,203.61 199.79,211.20 202.33,219.19 C203.49,222.83 211.19,232.00 213.10,232.00 C213.64,232.00 215.43,232.99 217.07,234.21 C219.48,235.99 221.20,236.37 225.95,236.19 C229.19,236.06 234.01,235.26 236.67,234.42 C239.33,233.58 242.85,232.65 244.50,232.37 C246.15,232.08 248.51,230.58 249.73,229.03 C250.96,227.49 253.00,225.97 254.25,225.65 C255.51,225.34 259.16,221.89 262.37,217.98 C266.78,212.63 268.74,210.96 270.36,211.19 C272.29,211.47 272.53,212.21 272.79,218.64 C273.01,224.03 272.71,226.15 271.54,227.32 C270.69,228.16 270.00,229.86 270.00,231.08 C270.00,233.61 265.31,243.66 263.02,246.04 C262.18,246.91 260.38,249.45 259.01,251.68 C257.64,253.91 255.61,256.15 254.51,256.65 C253.40,257.16 252.59,258.05 252.70,258.62 C252.96,260.06 242.36,264.35 240.22,263.67 C229.59,260.32 227.79,258.82 228.16,253.65 C228.57,248.01 226.50,247.91 223.81,253.45 C221.83,257.52 221.72,258.41 222.86,261.27 C224.02,264.19 224.71,266.49 224.92,268.08 C224.97,268.40 227.10,270.17 229.66,272.00 C233.76,274.95 235.24,275.40 242.09,275.80 C248.76,276.18 250.35,275.95 253.30,274.12 C255.19,272.96 257.41,272.00 258.24,272.00 C259.07,272.00 262.76,268.96 266.44,265.25 C275.89,255.73 277.00,254.45 277.00,253.05 C277.00,252.37 277.90,250.67 279.00,249.27 C280.10,247.87 281.00,245.53 281.00,244.07 C281.00,242.60 281.42,240.97 281.94,240.45 C282.88,239.51 284.08,235.37 286.39,225.15 C287.80,218.92 290.03,217.03 292.75,219.75 C294.28,221.28 294.61,223.53 294.82,233.90 C294.98,241.95 295.58,247.45 296.54,249.74 C297.34,251.67 298.00,253.93 298.00,254.77 C298.00,255.61 299.50,258.59 301.34,261.40 C304.69,266.51 308.00,275.18 308.00,278.82 C308.00,279.88 307.33,281.32 306.50,282.00 C305.67,282.68 305.00,284.00 305.00,284.92 C305.00,287.15 303.05,289.00 300.71,289.00 C299.67,289.00 297.68,289.89 296.29,290.99 C294.90,292.08 293.26,292.66 292.63,292.28 C286.13,288.29 282.64,285.25 281.80,282.86 C280.64,279.52 278.53,279.15 276.99,282.02 C276.17,283.54 276.26,284.53 277.34,286.08 C278.13,287.21 278.56,288.97 278.29,290.00 C278.00,291.10 278.93,293.35 280.52,295.44 C282.56,298.11 283.98,299.00 286.21,299.00 C287.85,299.00 290.27,299.86 291.61,300.90 C294.58,303.24 303.25,303.61 305.03,301.47 ZM 270.70 178.61 C266.81,177.31 262.01,174.76 259.51,172.67 L 255.12 169.00 L 255.49 162.25 C255.70,158.54 256.08,154.27 256.34,152.76 C256.84,149.94 260.86,145.97 266.36,142.87 C274.81,138.12 275.46,137.99 286.70,138.63 L 297.50 139.25 L 301.83 143.37 C307.51,148.79 309.00,151.83 309.00,158.02 C309.00,165.28 306.78,168.91 299.20,174.07 C296.83,175.68 294.05,177.00 293.01,177.00 C291.97,177.00 290.87,177.40 290.57,177.89 C290.06,178.71 288.57,179.08 280.50,180.39 C278.79,180.67 274.58,179.90 270.70,178.61 ZM 270.72 176.51 C276.98,178.23 282.23,178.27 289.10,176.65 C309.13,171.94 314.38,151.81 297.79,143.39 C290.85,139.87 278.96,139.53 272.00,142.66 C259.59,148.24 253.68,160.04 258.96,168.70 C261.39,172.69 264.61,174.82 270.72,176.51 ZM 362.56 287.83 C362.84,287.67 363.00,287.40 363.00,287.00 C363.00,286.45 363.52,286.00 364.16,286.00 C364.80,286.00 367.51,284.59 370.19,282.88 C375.81,279.27 380.59,270.88 379.70,266.18 C377.80,256.17 371.94,249.55 362.34,246.57 C354.29,244.08 346.68,240.13 342.24,236.16 C340.18,234.32 337.83,232.29 337.00,231.66 C336.17,231.02 333.70,228.26 331.50,225.51 C329.30,222.77 326.71,219.73 325.75,218.76 C323.75,216.75 323.60,215.62 324.97,213.05 C327.00,209.26 328.91,209.90 335.78,216.63 C339.48,220.26 343.62,224.25 345.00,225.51 C348.09,228.34 359.45,234.42 363.50,235.42 C365.15,235.82 367.17,236.74 368.00,237.45 C368.83,238.16 371.52,238.99 373.98,239.30 C376.44,239.62 378.62,240.35 378.81,240.94 C378.87,241.10 378.96,241.25 379.07,241.38 C365.04,240.59 351.23,233.60 336.66,219.94 C329.98,213.67 327.62,211.99 326.98,213.03 C325.67,215.16 328.68,219.67 337.00,228.06 C344.81,235.93 352.58,240.87 363.84,245.11 C371.55,248.02 377.65,253.01 380.11,258.44 C386.40,272.29 375.79,287.01 362.56,287.83 ZM 325.35 270.18 C324.69,269.62 322.97,266.91 321.42,264.00 C319.81,260.98 317.52,257.70 316.31,256.73 C315.02,255.68 313.24,252.00 311.97,247.73 C310.78,243.75 308.88,237.50 307.75,233.83 C305.98,228.12 305.87,226.73 306.95,224.12 C307.65,222.44 308.78,220.59 309.48,220.02 C311.43,218.40 314.04,219.94 314.67,223.08 C314.98,224.63 316.08,226.67 317.11,227.60 C318.15,228.54 319.01,229.80 319.02,230.40 C319.08,234.10 333.24,249.00 338.15,250.54 C339.44,250.94 341.79,252.35 343.36,253.67 C345.22,255.22 346.91,255.85 348.16,255.45 C349.23,255.11 351.18,255.54 352.51,256.42 C353.84,257.29 355.53,258.00 356.25,258.00 C356.98,258.00 359.26,260.02 361.32,262.48 C364.42,266.19 365.09,267.78 365.17,271.65 C365.29,277.65 363.55,279.00 355.74,279.00 C350.77,279.00 349.90,279.26 350.18,280.68 C350.35,281.60 351.77,282.70 353.33,283.11 C354.88,283.53 356.96,284.80 357.94,285.93 C358.79,286.91 359.90,287.58 360.88,287.85 C358.42,287.78 355.89,287.22 353.38,286.09 C348.39,283.82 346.00,280.65 346.00,276.28 C346.00,272.34 346.35,272.28 350.18,275.50 C357.52,281.67 366.98,274.66 362.64,266.27 C360.98,263.06 358.03,261.36 346.83,257.16 C334.07,252.37 323.54,242.37 316.02,227.92 C313.75,223.56 311.50,220.00 311.02,220.00 C309.30,220.00 308.90,224.03 309.90,231.22 C311.25,240.92 313.02,245.63 319.70,257.34 C323.50,264.00 324.78,266.58 325.35,270.18 ZM 285.62 166.09 C281.85,168.39 281.31,168.41 277.52,166.44 C273.81,164.50 273.03,163.30 273.02,159.47 C272.99,155.23 275.46,152.19 279.53,151.43 C288.65,149.72 293.46,161.31 285.62,166.09 ZM 285.07 163.96 C286.36,163.27 287.00,161.87 286.99,159.71 C286.99,156.71 285.15,154.79 279.78,152.20 C278.72,151.69 275.01,158.17 275.00,160.55 C275.00,161.68 275.54,163.14 276.20,163.80 C277.67,165.27 282.45,165.36 285.07,163.96 Z" fill="rgb(51,65,173)"/>
<path d="M 0.00 204.00 L 0.00 0.00 L 306.00 0.00 L 612.00 0.00 L 612.00 204.00 L 612.00 408.00 L 306.00 408.00 L 0.00 408.00 L 0.00 204.00 ZM 309.37 302.16 C320.74,297.13 326.55,287.26 325.75,274.34 C325.35,267.86 324.78,266.24 319.70,257.34 C313.02,245.63 311.25,240.92 309.90,231.22 C308.90,224.03 309.30,220.00 311.02,220.00 C311.50,220.00 313.75,223.56 316.02,227.92 C323.54,242.37 334.07,252.37 346.83,257.16 C358.03,261.36 360.98,263.06 362.64,266.27 C366.98,274.66 357.52,281.67 350.18,275.50 C346.35,272.28 346.00,272.34 346.00,276.28 C346.00,280.65 348.39,283.82 353.38,286.09 C370.14,293.70 387.82,275.41 380.11,258.44 C377.65,253.01 371.55,248.02 363.84,245.11 C352.58,240.87 344.81,235.93 337.00,228.06 C328.68,219.67 325.67,215.16 326.98,213.03 C327.62,211.99 329.98,213.67 336.66,219.94 C352.25,234.55 366.96,241.53 382.00,241.45 C395.91,241.39 405.53,235.77 411.10,224.45 C414.02,218.52 414.23,217.44 413.78,210.45 C413.37,204.15 412.80,202.18 410.36,198.70 C405.83,192.27 401.79,190.00 394.80,190.00 C388.58,190.00 383.66,191.84 382.62,194.55 C381.64,197.10 382.75,197.91 386.42,197.32 C393.88,196.11 400.34,204.29 397.91,211.87 C396.37,216.66 394.34,218.90 389.50,221.12 C384.08,223.61 378.70,223.46 370.27,220.59 C361.97,217.77 353.80,212.77 346.78,206.20 C337.50,197.52 338.23,194.48 349.75,193.81 C362.53,193.07 371.35,187.03 376.69,175.36 C384.96,157.30 380.24,136.87 364.12,120.99 C354.72,111.72 345.05,106.68 331.07,103.78 C307.27,98.84 284.16,105.23 267.17,121.46 C251.05,136.86 244.01,158.57 248.50,179.00 C250.58,188.47 250.39,200.54 248.08,205.64 C245.34,211.67 239.51,217.64 234.48,219.56 C228.58,221.81 223.62,220.82 219.32,216.52 C216.62,213.82 216.00,212.42 216.00,209.03 C216.00,201.20 219.86,197.06 227.19,197.02 C229.77,197.01 232.16,196.55 232.51,195.99 C232.85,195.43 231.79,193.63 230.14,191.99 C227.48,189.32 226.50,189.00 221.04,189.00 C208.05,189.00 199.00,198.13 199.00,211.22 C199.00,218.28 203.36,227.54 208.62,231.67 C213.78,235.71 222.92,239.00 229.02,239.00 C240.81,239.00 255.13,230.85 264.00,219.09 C268.85,212.66 272.00,211.25 272.00,215.51 C272.00,222.67 265.58,238.94 258.94,248.59 C250.74,260.51 239.06,264.92 232.66,258.51 C230.59,256.45 230.50,250.64 232.50,248.64 C234.66,246.49 234.35,244.99 231.75,245.04 C226.08,245.12 221.00,251.02 221.03,257.50 C221.06,265.68 227.52,274.37 235.55,277.02 C241.07,278.84 252.52,277.82 258.00,275.01 C260.48,273.74 265.47,269.73 269.11,266.10 C277.33,257.88 283.80,245.24 287.33,230.50 C288.97,223.68 290.22,220.40 291.26,220.20 C292.56,219.94 292.79,221.70 292.79,232.20 C292.80,246.16 294.14,251.46 300.85,264.10 C303.01,268.17 305.07,273.16 305.43,275.20 C307.17,285.21 297.19,292.25 287.98,287.49 C283.92,285.39 282.68,282.61 283.46,277.39 C284.01,273.72 283.85,273.00 282.48,273.00 C281.58,273.00 279.53,274.32 277.92,275.92 C275.42,278.43 275.00,279.61 275.00,284.22 C275.00,299.49 293.54,309.17 309.37,302.16 ZM 270.72 176.51 C264.61,174.82 261.39,172.69 258.96,168.70 C253.68,160.04 259.59,148.24 272.00,142.66 C278.96,139.53 290.85,139.87 297.79,143.39 C314.38,151.81 309.13,171.94 289.10,176.65 C282.23,178.27 276.98,178.23 270.72,176.51 ZM 285.62 166.09 C293.46,161.31 288.65,149.72 279.53,151.43 C275.46,152.19 272.99,155.23 273.02,159.47 C273.03,163.30 273.81,164.50 277.52,166.44 C281.31,168.41 281.85,168.39 285.62,166.09 Z" fill="rgb(254,254,254)"/>
</g>
</svg>